<?xml version="1.0" encoding="UTF-8"?>
<svg id="Livello_1" xmlns="http://www.w3.org/2000/svg" version="1.1" viewBox="0 0 439.36 439.36">
  <!-- Generator: Adobe Illustrator 30.3.0, SVG Export Plug-In . SVG Version: 2.1.3 Build 182)  -->
  <defs>
    <style>
      .st0 {
        fill: #b8e5eb;
      }

      .st1 {
        isolation: isolate;
      }

      .st2 {
        fill: #64c5cc;
      }

      .st3 {
        fill: #fff;
      }

      .st4 {
        fill: #f37566;
      }

      .st5 {
        fill: #ebd7bc;
      }
    </style>
  </defs>
  <path class="st2" d="M334.3,198.83c-15.14,44.31-65.3,65.13-107.09,44.08l-24.05-14.05c-9.34-5.46-18.79-10.76-29.39-12.99-16.13-3.4-38.69,1.27-40.8,18.75-35.31-39.88-42.2-97.57-14.76-144.04,5.8,9.33,8.53,18.78,10.86,28.89,2.95,12.69,2.76,25.3,2.02,38.39l-3.31,29.95c6.16-19.41,14.92-37.33,26.98-53.72,1.99-2.72,3.65-5.28,5.96-7.79.83-.9,1.76-1.8,2.8-2.7l8.24,4.13c-.21-.06-.41-.15-.62-.22-1.02,1.2-2.02,2.42-3,3.65-10.32,12.77-19.16,26.67-25.3,42.81l10.76-10.67c10.19-8.75,22.61-13.37,36-14.89,16.33-1.85,31.44-3.06,44.96-13.64-4.78,21.01-17.79,32.56-37.58,37.89-13.54,3.65-28.05,2.17-42.78,9.02-8.56,3.97-16.27,10.07-19.9,18.97-2.52,6.16-2.51,12.95-2.48,19.72l8.44-8.02c30.69-20.39,58.53-7.99,89.14,6.67,13.93,6.67,28.44,10.91,44.02,10.23,23.93-1.05,46.7-11,60.85-30.41h.03Z"/>
  <path class="st4" d="M251.16,63.22c-8.13,9.83-13.55,19.9-17.27,31.19-2.67,8.1-6.18,15.25-11.28,22.07-12.96,14.6-32.16,18.24-51.03,11.03l-7.82-4.03-.12-.06c-17.91-10.66-25.33-31.09-18.5-50.51,1.95-5.51,4.49-10.24,7.32-15.38,5.7-10.36,9.95-20.75,11.91-32.56,21.15,10.51,30.25,34.02,26.6,56.7,13.46-18.63,38.19-26.54,60.18-18.44h0Z"/>
  <path class="st0" d="M246.45,218.46c8.28-1.18,16.13-.85,23.84-3.68,19.43-7.15,33.77-24.79,28.89-45.67-2.97-11.88-12.24-19.75-24.5-20.97-8.02-.8-15.14,2.66-21.99,7.72,2.58-7.54,6.79-13.97,12.63-18.92,17.53-14.85,43.2-14.7,60.07.9,11.71,10.82,15.26,29.89,9.92,44.96-11.46,32.35-56.22,47.36-88.87,35.66h0Z"/>
  <path class="st5" d="M222.01,247.98c21.75,11.77,45.16,13.16,68.99,5.29-45.48,32.15-106.68,28.06-147.81-8.48-2.6-2.31-4.38-4.66-4.42-8.01-.11-10.76,17.36-17.15,31.98-14.4,10.48,1.98,19.76,6.73,28.86,12.18l22.41,13.42h-.01Z"/>
  <path class="st0" d="M139.7,204.73c3.82-8.59,11.02-14.02,19.5-17.53,40.57-16.78,76.07,16.45,103.67,1.1,6.43-3.58,9.7-10.26,8.29-17.59-1.26-6.58-7.1-10.48-14.12-9.29,4.11-5.44,10.62-6.98,17.32-6.32,5.56.54,11.47,4.24,14.91,9.76,9.59,15.37-.9,35.59-19.28,42.62-13.89,5.32-28.63,5.23-42.84,1.11l-26.4-9.01c-12.42-4.24-25.28-5.98-38.26-3.8-8.13,1.37-14.91,4.88-22.8,8.97v-.02Z"/>
  <path class="st5" d="M256.69,135.6c-9.9-8.38-10.66-22.43-3-32.45,6.5-8.5,17.61-11.63,27.93-7.98,9.45,3.35,16.29,12.73,16,23.87-15.59-.67-29.92,4.48-40.93,16.56Z"/>
  <path class="st4" d="M221.7,56.45c-9.47,1.92-17.73,5.87-25.47,12.25-.68-9.54-2.99-18.14-7.77-26.62,6.96-6.58,15.55-11.08,25.39-11.69,5.13,7.63,8.24,15.96,7.86,26.05h0Z"/>
  <path class="st2" d="M171.78,127.73c-.21-.06-.41-.15-.62-.22-1.02,1.2-2.02,2.42-3,3.65l-7.42-4.86c.83-.9,1.76-1.8,2.8-2.7l8.24,4.13h0Z"/>
  <g class="st1">
    <path class="st3" d="M102.49,323.92h-13.59l-2.81,6.4h-3.76l11.58-25.58h3.62l11.62,25.58h-3.84l-2.81-6.4ZM101.21,321l-5.52-12.53-5.52,12.53h11.04Z"/>
    <path class="st3" d="M132.49,320.63c0,5.96-4.13,9.9-9.79,9.9-2.74,0-5.15-1.06-6.76-3.14v10.01h-3.51v-26.46h3.36v3.07c1.57-2.16,4.06-3.25,6.91-3.25,5.66,0,9.79,3.95,9.79,9.87ZM128.95,320.63c0-4.09-2.81-6.8-6.54-6.8s-6.5,2.71-6.5,6.8,2.81,6.83,6.5,6.83,6.54-2.7,6.54-6.83Z"/>
    <path class="st3" d="M157.42,320.63c0,5.96-4.13,9.9-9.79,9.9-2.74,0-5.15-1.06-6.76-3.14v10.01h-3.51v-26.46h3.36v3.07c1.57-2.16,4.06-3.25,6.91-3.25,5.66,0,9.79,3.95,9.79,9.87ZM153.88,320.63c0-4.09-2.81-6.8-6.54-6.8s-6.5,2.71-6.5,6.8,2.81,6.83,6.5,6.83,6.54-2.7,6.54-6.83Z"/>
    <path class="st3" d="M177.45,318.63v11.7h-3.33v-2.56c-1.17,1.75-3.33,2.78-6.36,2.78-4.39,0-7.16-2.34-7.16-5.7,0-3.11,2.01-5.66,7.78-5.66h5.55v-.7c0-2.96-1.72-4.68-5.19-4.68-2.3,0-4.64.8-6.14,2.08l-1.46-2.63c2.01-1.61,4.9-2.49,8-2.49,5.3,0,8.3,2.56,8.3,7.86ZM173.94,324.4v-2.71h-5.41c-3.47,0-4.46,1.35-4.46,3,0,1.94,1.61,3.14,4.28,3.14s4.71-1.21,5.59-3.43Z"/>
    <path class="st3" d="M194.37,310.77v3.4c-.29-.04-.55-.04-.8-.04-3.76,0-6.1,2.3-6.1,6.54v9.65h-3.51v-19.37h3.36v3.25c1.24-2.27,3.65-3.44,7.05-3.44Z"/>
    <path class="st3" d="M210.38,329.19c-1.06.91-2.67,1.35-4.24,1.35-3.91,0-6.14-2.16-6.14-6.07v-10.63h-3.29v-2.89h3.29v-4.24h3.51v4.24h5.55v2.89h-5.55v10.49c0,2.08,1.1,3.25,3.03,3.25,1.02,0,2.01-.33,2.74-.91l1.1,2.52Z"/>
    <path class="st3" d="M229.97,318.63v11.7h-3.33v-2.56c-1.17,1.75-3.33,2.78-6.36,2.78-4.39,0-7.16-2.34-7.16-5.7,0-3.11,2.01-5.66,7.78-5.66h5.55v-.7c0-2.96-1.72-4.68-5.19-4.68-2.3,0-4.64.8-6.14,2.08l-1.46-2.63c2.01-1.61,4.9-2.49,8-2.49,5.3,0,8.29,2.56,8.29,7.86ZM226.46,324.4v-2.71h-5.41c-3.47,0-4.46,1.35-4.46,3,0,1.94,1.61,3.14,4.28,3.14s4.71-1.21,5.59-3.43Z"/>
    <path class="st3" d="M268.64,319.17v11.15h-3.51v-10.74c0-3.8-1.83-5.66-5.01-5.66-3.51,0-5.81,2.23-5.81,6.43v9.98h-3.51v-10.74c0-3.8-1.83-5.66-5.01-5.66-3.51,0-5.81,2.23-5.81,6.43v9.98h-3.51v-19.37h3.36v2.89c1.39-1.97,3.76-3.07,6.69-3.07s5.45,1.17,6.72,3.58c1.46-2.19,4.17-3.58,7.46-3.58,4.71,0,7.93,2.71,7.93,8.41Z"/>
    <path class="st3" d="M292.65,321.8h-15.71c.44,3.4,3.18,5.66,7.02,5.66,2.27,0,4.17-.77,5.59-2.34l1.94,2.27c-1.75,2.05-4.42,3.14-7.64,3.14-6.25,0-10.42-4.13-10.42-9.9s4.13-9.87,9.72-9.87,9.57,4.02,9.57,9.98c0,.29-.04.73-.07,1.06ZM276.94,319.28h12.42c-.37-3.25-2.81-5.55-6.21-5.55s-5.85,2.27-6.21,5.55Z"/>
    <path class="st3" d="M315.97,319.17v11.15h-3.51v-10.74c0-3.8-1.9-5.66-5.23-5.66-3.73,0-6.14,2.23-6.14,6.43v9.98h-3.51v-19.37h3.36v2.92c1.43-1.97,3.91-3.11,6.98-3.11,4.71,0,8.04,2.71,8.04,8.41Z"/>
    <path class="st3" d="M333.37,329.19c-1.06.91-2.67,1.35-4.24,1.35-3.91,0-6.14-2.16-6.14-6.07v-10.63h-3.29v-2.89h3.29v-4.24h3.51v4.24h5.55v2.89h-5.55v10.49c0,2.08,1.1,3.25,3.03,3.25,1.02,0,2.01-.33,2.74-.91l1.1,2.52Z"/>
    <path class="st3" d="M335.16,320.63c0-5.77,4.28-9.87,10.09-9.87s10.05,4.09,10.05,9.87-4.24,9.9-10.05,9.9-10.09-4.13-10.09-9.9ZM351.75,320.63c0-4.13-2.78-6.8-6.5-6.8s-6.54,2.67-6.54,6.8,2.81,6.83,6.54,6.83,6.5-2.7,6.5-6.83Z"/>
  </g>
  <g class="st1">
    <path class="st4" d="M42.91,352.71h12.59v44.52h-12.59v-44.52Z"/>
    <path class="st4" d="M63.9,350.04h12.08v47.19h-12.08v-47.19Z"/>
    <path class="st4" d="M112.36,362.7h-13.67v-9.99h39.88v9.99h-13.61v34.53h-12.59v-34.53Z"/>
    <path class="st4" d="M178.25,362.76v34.47h-11.51v-3.69c-2.61,2.86-6.3,4.26-10.24,4.26-8.46,0-14.63-4.83-14.63-15.77v-19.27h12.08v17.3c0,5.34,2.1,7.44,5.72,7.44s6.49-2.35,6.49-8.14v-16.6h12.08Z"/>
    <path class="st4" d="M186.01,350.04h12.08v47.19h-12.08v-47.19Z"/>
    <path class="st4" d="M204.58,352.52c0-3.62,2.93-6.42,7.38-6.42s7.38,2.61,7.38,6.23c0,3.82-2.93,6.61-7.38,6.61s-7.38-2.8-7.38-6.42ZM205.92,362.76h12.08v34.47h-12.08v-34.47Z"/>
    <path class="st4" d="M264.43,379.99c0,10.94-7.57,17.81-16.92,17.81-4.01,0-7.25-1.21-9.6-3.62v15.39h-12.08v-46.81h11.51v3.43c2.29-2.73,5.66-4.01,10.18-4.01,9.35,0,16.92,6.87,16.92,17.81ZM252.21,379.99c0-5.21-3.18-8.2-7.25-8.2s-7.25,2.99-7.25,8.2,3.18,8.2,7.25,8.2,7.25-2.99,7.25-8.2Z"/>
    <path class="st4" d="M301.57,378.09v19.14h-11.26v-4.45c-1.72,3.31-5.15,5.02-10.18,5.02-8.27,0-12.85-4.64-12.85-10.62,0-6.36,4.64-10.3,15.33-10.3h6.87c-.19-3.5-2.54-5.47-7.31-5.47-3.31,0-7,1.15-9.35,2.99l-4.07-8.2c3.94-2.61,9.79-4.01,15.2-4.01,11.19,0,17.62,4.96,17.62,15.9ZM289.48,386.16v-2.99h-5.21c-3.88,0-5.28,1.4-5.28,3.5s1.65,3.5,4.52,3.5c2.67,0,5.02-1.27,5.98-4.01Z"/>
    <path class="st4" d="M345.9,377.51v19.72h-12.08v-17.74c0-4.96-2.16-7.06-5.66-7.06-3.88,0-6.87,2.42-6.87,8.14v16.66h-12.08v-34.47h11.51v3.75c2.73-2.86,6.61-4.33,10.94-4.33,8.08,0,14.25,4.64,14.25,15.33Z"/>
    <path class="st4" d="M351.81,379.93c0-10.37,8.2-17.74,19.46-17.74s19.46,7.38,19.46,17.74-8.08,17.87-19.46,17.87-19.46-7.44-19.46-17.87ZM378.52,379.93c0-5.21-3.12-8.14-7.25-8.14s-7.25,2.93-7.25,8.14,3.18,8.27,7.25,8.27,7.25-2.99,7.25-8.27Z"/>
  </g>
</svg>