<?xml version="1.0" encoding="UTF-8"?>
<svg id="Livello_1" xmlns="http://www.w3.org/2000/svg" version="1.1" viewBox="0 0 439.36 439.36">
  <!-- Generator: Adobe Illustrator 30.3.0, SVG Export Plug-In . SVG Version: 2.1.3 Build 182)  -->
  <defs>
    <style>
      .st0 {
        fill: #b8e5eb;
      }

      .st1 {
        fill: #64c5cc;
      }

      .st2 {
        fill: #f37566;
      }

      .st3 {
        fill: #ebd7bc;
      }
    </style>
  </defs>
  <path class="st1" d="M397.83,295.52c-23.51,68.8-101.39,101.11-166.26,68.43l-37.33-21.82c-14.51-8.48-29.17-16.71-45.63-20.17-25.05-5.27-60.07,1.97-63.34,29.1-54.82-61.92-65.52-151.48-22.92-223.63,9.01,14.48,13.25,29.15,16.87,44.85,4.58,19.71,4.29,39.28,3.14,59.61l-5.13,46.5c9.56-30.14,23.17-57.96,41.89-83.4,3.09-4.22,5.66-8.2,9.26-12.1,1.28-1.4,2.73-2.8,4.35-4.19l12.79,6.42c-.32-.09-.64-.23-.96-.34-1.58,1.86-3.14,3.76-4.65,5.66-16.02,19.82-29.75,41.41-39.28,66.46l16.71-16.57c15.81-13.59,35.11-20.76,55.9-23.12,25.35-2.86,48.81-4.74,69.81-21.18-7.43,32.61-27.62,50.56-58.35,58.83-21.02,5.66-43.54,3.37-66.41,14-13.29,6.16-25.25,15.63-30.89,29.45-3.92,9.56-3.9,20.1-3.85,30.62l13.11-12.44c47.64-31.65,90.87-12.4,138.4,10.36,21.63,10.36,44.16,16.94,68.34,15.88,37.15-1.63,72.51-17.07,94.46-47.21Z"/>
  <path class="st2" d="M268.74,84.98c-12.63,15.26-21.04,30.89-26.81,48.42-4.15,12.58-9.6,23.67-17.51,34.26-20.12,22.67-49.94,28.33-79.22,17.12l-12.15-6.26-.18-.09c-27.8-16.55-39.33-48.26-28.72-78.42,3.02-8.55,6.97-15.9,11.37-23.88,8.85-16.09,15.45-32.22,18.49-50.56,32.84,16.32,46.96,52.82,41.3,88.02,20.9-28.92,59.29-41.21,93.43-28.62Z"/>
  <path class="st0" d="M261.43,326c12.86-1.83,25.05-1.32,37.02-5.72,30.16-11.1,52.43-38.49,44.85-70.91-4.61-18.44-19.01-30.67-38.03-32.56-12.46-1.24-23.51,4.13-34.14,11.99,4.01-11.7,10.55-21.69,19.61-29.37,27.22-23.05,67.07-22.82,93.26,1.4,18.18,16.8,23.69,46.41,15.4,69.8-17.8,50.22-87.29,73.52-137.98,55.36Z"/>
  <path class="st3" d="M223.49,371.83c33.78,18.28,70.12,20.44,107.11,8.22-70.61,49.91-165.63,43.56-229.49-13.16-4.04-3.59-6.81-7.24-6.86-12.44-.17-16.71,26.94-26.63,49.65-22.35,16.28,3.07,30.68,10.44,44.8,18.9l34.79,20.83Z"/>
  <path class="st0" d="M95.7,304.67c5.93-13.33,17.11-21.77,30.28-27.22,62.98-26.06,118.11,25.53,160.95,1.7,9.99-5.55,15.05-15.93,12.88-27.32-1.96-10.22-11.02-16.27-21.93-14.43,6.38-8.45,16.48-10.84,26.9-9.82,8.64.85,17.8,6.58,23.15,15.15,14.89,23.86-1.4,55.25-29.94,66.17-21.56,8.25-44.44,8.13-66.51,1.72l-40.98-13.99c-19.29-6.58-39.24-9.29-59.4-5.9-12.63,2.12-23.14,7.58-35.4,13.92Z"/>
  <path class="st3" d="M277.34,197.35c-15.36-13.02-16.56-34.83-4.66-50.39,10.1-13.2,27.35-18.05,43.36-12.39,14.67,5.19,25.29,19.77,24.85,37.06-24.2-1.05-46.45,6.96-63.54,25.71Z"/>
  <path class="st2" d="M223.01,74.47c-14.71,2.98-27.52,9.11-39.54,19.02-1.06-14.8-4.64-28.16-12.07-41.32,10.8-10.22,24.15-17.2,39.41-18.14,7.97,11.85,12.79,24.77,12.2,40.44Z"/>
  <path class="st1" d="M145.51,185.13c-.32-.09-.64-.23-.96-.34-1.58,1.86-3.14,3.76-4.65,5.66l-11.53-7.54c1.28-1.4,2.73-2.8,4.35-4.19l12.79,6.42Z"/>
</svg>